<?xml version="1.0" encoding="UTF-8" standalone="no"?>
<svg
   width="640"
   height="640"
   viewBox="0 0 640 640"
   fill="none"
   version="1.1"
   id="svg143"
   sodipodi:docname="mysplashimage.svg"
   inkscape:version="1.1.2 (b8e25be833, 2022-02-05)"
   xmlns:inkscape="http://www.inkscape.org/namespaces/inkscape"
   xmlns:sodipodi="http://sodipodi.sourceforge.net/DTD/sodipodi-0.dtd"
   xmlns="http://www.w3.org/2000/svg"
   xmlns:svg="http://www.w3.org/2000/svg">
  <sodipodi:namedview
     id="namedview145"
     pagecolor="#ffffff"
     bordercolor="#666666"
     borderopacity="1.0"
     inkscape:pageshadow="2"
     inkscape:pageopacity="0.0"
     inkscape:pagecheckerboard="0"
     showgrid="false"
     inkscape:zoom="1.6011561"
     inkscape:cx="209.5361"
     inkscape:cy="314.14801"
     inkscape:window-width="2560"
     inkscape:window-height="1377"
     inkscape:window-x="-3848"
     inkscape:window-y="-321"
     inkscape:window-maximized="1"
     inkscape:current-layer="svg143" />
  <path
     d="m 394.432,307.568 -0.428,-25.687 c 32.355,-0.546 56.352,-10.146 71.304,-28.545 27.1,-33.34 17.585,-85.153 17.478,-85.677 l 25.227,-4.828 c 0.492,2.601 11.784,64.186 -22.776,106.699 -19.961,24.563 -50.518,37.364 -90.805,38.038 z"
     fill="#8a6fe8"
     id="path2" />
  <path
     d="m 441.954,169.36 29.872,24.885 c 5.319,4.431 13.229,3.714 17.671,-1.606 4.431,-5.319 3.714,-13.229 -1.606,-17.67 l -29.872,-24.8848 c -5.319,-4.4311 -13.229,-3.714 -17.671,1.6054 -4.431,5.3301 -3.714,13.2394 1.606,17.6704 z"
     fill="#8a6fe8"
     id="path4" />
  <path
     d="m 517.175,178.062 10.745,-23.8357 c 2.815,-6.3683 -0.064,-13.8176 -6.432,-16.6432 -6.368,-2.8149 -13.818,0.0642 -16.643,6.4325 l -11.014,24.4454 z"
     fill="#8a6fe8"
     id="path6" />
  <path
     d="m 511.363,165.175 -0.129,-36.058 c -0.053,-6.9677 -5.736,-12.576 -12.704,-12.5225 -6.968,0.0535 -12.576,5.7368 -12.523,12.7044 l 0.011,26.8111 z"
     fill="#8a6fe8"
     id="path8" />
  <path
     d="m 496.453,169.071 -8.316,-35.1162 c -1.594,-6.7858 -8.38,-10.992 -15.166,-9.3973 -6.786,1.5948 -10.992,8.3805 -9.397,15.1662 l 8.466,35.7583 z"
     fill="#8a6fe8"
     id="path10" />
  <path
     d="m 491.776,202.261 c 14.583,0 26.405,-11.821 26.405,-26.404 0,-14.583 -11.822,-26.4043 -26.405,-26.4043 -14.582,0 -26.404,11.8213 -26.404,26.4043 0,14.583 11.822,26.404 26.404,26.404 z"
     fill="url(#paint0_radial)"
     id="path12"
     style="fill:url(#paint0_radial)" />
  <path
     d="m 358.267,466.979 c 0.246,-22.252 -2.922,-67.418 -25.891,-105.243 l -22.454,13.636 c 20.838,34.303 22.401,74.343 21.919,91.81 -0.043,1.445 13.422,2.751 26.426,-0.203 z"
     fill="url(#paint1_linear)"
     id="path14"
     style="fill:url(#paint1_linear)" />
  <path
     d="m 331.841,466.936 20.796,-0.096 19.415,111.225 -41.741,0.193 c -3.179,0.011 -5.587,-2.547 -5.373,-5.726 z"
     fill="#522cd5"
     id="path16" />
  <path
     d="m 416.566,548.814 c 3.607,2.847 3.543,6.968 3.265,11.313 l -0.867,13.325 c -0.161,2.387 -2.237,4.346 -4.624,4.357 l -43.508,0.203 c -2.707,0.011 -4.752,-2.173 -4.57,-4.87 l 0.289,-13.807 c 0.332,-5.02 -1.359,-6.861 -5.244,-11.591 -6.658,-8.081 -26.34,-52.124 -24.467,-80.819 l 21.416,-0.096 c 1.435,17.029 23.911,54.853 58.31,81.985 z"
     fill="url(#paint2_linear)"
     id="path18"
     style="fill:url(#paint2_linear)" />
  <path
     d="m 419.82,560.127 c 0.203,-3.039 0.257,-5.951 -0.931,-8.412 l -54.254,0.246 c 1.499,2.205 2.13,4.131 1.927,7.353 l -0.289,13.807 c -0.182,2.707 1.873,4.891 4.57,4.869 l 43.497,-0.192 c 2.387,-0.011 4.463,-1.97 4.624,-4.356 z"
     fill="url(#paint3_radial)"
     id="path20"
     style="fill:url(#paint3_radial)" />
  <path
     d="m 243.552,467.471 c -0.449,-22.251 2.312,-67.45 24.938,-105.478 l 22.583,13.432 c -20.528,34.496 -21.727,74.547 -21.084,92.003 0.053,1.456 -13.411,2.89 -26.437,0.043 z"
     fill="url(#paint4_linear)"
     id="path22"
     style="fill:url(#paint4_linear)" />
  <path
     d="m 220.798,557.152 c -0.033,-2.965 0.406,-5.577 1.659,-9.922 19.425,-53.098 21.063,-79.866 21.063,-79.866 l 26.479,-0.118 c 0,0 1.82,26.266 21.717,79.181 1.573,3.768 1.755,7.214 1.958,10.404 l 0.118,16.985 c 0.011,2.558 -2.076,4.667 -4.634,4.678 l -1.285,0.01 -61.092,0.278 -1.285,0.011 c -2.569,0.011 -4.666,-2.065 -4.677,-4.634 z"
     fill="url(#paint5_linear)"
     id="path24"
     style="fill:url(#paint5_linear)" />
  <path
     d="m 220.798,557.152 c 0,-0.482 0.01,-0.953 0.032,-1.413 0.139,-1.477 0.813,-3.136 4.045,-3.157 l 65.332,-0.3 c 2.354,0.085 3.136,1.894 3.382,3.029 0.032,0.503 0.075,1.017 0.107,1.509 l 0.117,16.986 c 0.011,1.605 -0.802,3.018 -2.044,3.863 -0.738,0.503 -1.637,0.803 -2.59,0.814 l -1.284,0.011 -61.093,0.278 -1.274,0.01 c -1.284,0.011 -2.451,-0.513 -3.296,-1.348 -0.846,-0.835 -1.37,-2.002 -1.381,-3.286 z"
     fill="url(#paint6_radial)"
     id="path26"
     style="fill:url(#paint6_radial)" />
  <path
     d="m 424.979,306.348 c 9.183,-35.941 3.029,-64.571 3.029,-64.571 l 8.444,-0.043 0.204,-0.16 C 424.262,175.75 366.326,126.0987 296.949,126.4198 218.796,126.773 155.7233,190.424 156.0765,268.577 c 0.3532,78.154 64.0035,141.226 142.1575,140.873 61.671,-0.278 113.944,-39.976 133.07,-95.107 0.568,-2.344 0.493,-6.539 -6.325,-7.995 z"
     fill="url(#paint7_radial)"
     id="path28"
     style="fill:url(#paint7_radial)" />
  <path
     d="m 420.237,339.035 -244.36,1.113 c 5.5228,9.28 12.073,17.864 19.4902,25.613 l 205.6048,-0.932 c 7.364,-7.824 13.828,-16.461 19.265,-25.794 z"
     fill="#d8cff7"
     id="path30" />
  <path
     d="m 345.062,372.794 45.862,-0.209 -0.184,-40.564 -45.863,0.209 z"
     fill="#512bd4"
     id="path32" />
  <path
     d="m 353.001,357.626 c -0.31,0 -0.567,-0.096 -0.781,-0.299 -0.214,-0.204 -0.321,-0.461 -0.321,-0.739 0,-0.289 0.107,-0.546 0.321,-0.749 0.214,-0.214 0.471,-0.311 0.781,-0.311 0.311,0 0.567,0.107 0.781,0.311 0.214,0.203 0.332,0.46 0.332,0.749 0,0.289 -0.107,0.535 -0.321,0.739 -0.225,0.192 -0.481,0.299 -0.792,0.299 z"
     fill="#ffffff"
     id="path34" />
  <path
     d="m 365.192,357.434 h -1.98 l -5.245,-8.231 c -0.128,-0.203 -0.246,-0.428 -0.331,-0.653 h -0.043 c 0.043,0.236 0.064,0.749 0.064,1.541 l 0.011,7.353 h -1.756 l -0.021,-11.216 h 2.108 l 5.063,8.037 c 0.214,0.332 0.353,0.568 0.417,0.685 h 0.032 c -0.053,-0.299 -0.074,-0.802 -0.074,-1.509 l -0.011,-7.224 h 1.744 z"
     fill="#ffffff"
     id="path36" />
  <path
     d="m 373.733,357.412 -6.144,0.011 -0.021,-11.217 5.897,-0.011 v 1.584 l -4.078,0.011 0.011,3.179 3.757,-0.011 v 1.574 l -3.757,0.01 0.011,3.318 4.324,-0.01 z"
     fill="#ffffff"
     id="path38" />
  <path
     d="m 382.445,347.758 -3.147,0.011 0.022,9.632 h -1.82 l -0.021,-9.632 -3.136,0.01 v -1.584 l 8.091,-0.021 z"
     fill="#ffffff"
     id="path40" />
  <path
     d="m 425.279,306.337 c 9.076,-35.501 3.178,-63.854 3.029,-64.539 l -146.824,0.664 c 0,0 -9.258,-0.899 -9.216,7.556 0.043,8.445 0.493,32.323 0.61,58.728 0.022,5.426 4.485,8.027 7.985,8.005 0.011,0 140.755,-4.538 144.416,-10.414 z"
     fill="url(#paint8_radial)"
     id="path42"
     style="fill:url(#paint8_radial)" />
  <path
     d="m 337.685,306.798 c 0,0 22.498,-17.971 26.886,-21.299 4.388,-3.329 8.241,-3.522 12.298,-0.054 4.056,3.468 26.747,21.053 26.747,21.053 z"
     fill="#a08be8"
     id="path44" />
  <path
     d="m 430.748,316.141 c 0,0 4.195,-7.727 -5.469,-9.793 0.01,-0.043 -144.352,0.546 -144.352,0.546 -3.361,0.011 -7.695,-1.969 -8.081,-5.223 0.011,2.333 0.032,4.698 0.043,7.085 0.021,4.924 3.693,7.514 6.989,7.942 0.332,0.032 0.664,0.075 0.996,0.075 l 9.868,-0.043 z"
     fill="#512bd4"
     id="path46" />
  <path
     d="m 316.4,293.214 c 6.111,-0.119 10.902,-8.547 10.702,-18.824 -0.201,-10.278 -5.317,-18.512 -11.428,-18.393 -6.111,0.119 -10.902,8.547 -10.701,18.824 0.2,10.278 5.316,18.512 11.427,18.393 z"
     fill="#512bd4"
     id="path48" />
  <path
     d="m 416.249,274.267 c 0.107,-10.278 -4.761,-18.662 -10.872,-18.726 -6.111,-0.063 -11.152,8.217 -11.259,18.496 -0.107,10.278 4.76,18.662 10.872,18.726 6.111,0.063 11.152,-8.218 11.259,-18.496 z"
     fill="#512bd4"
     id="path50" />
  <path
     d="m 315.905,265.291 c 2.247,-2.269 5.287,-3.275 8.252,-3.029 1.755,3.233 2.857,7.471 2.954,12.127 0.053,2.911 -0.3,5.651 -0.953,8.124 -3.489,1.006 -7.406,0.149 -10.179,-2.591 -4.067,-4.013 -4.099,-10.574 -0.074,-14.631 z"
     fill="#8065e0"
     id="path52" />
  <path
     d="m 404.996,264.285 c 2.259,-2.269 5.298,-3.286 8.263,-3.029 1.905,3.372 3.05,7.953 2.997,12.983 -0.032,2.569 -0.364,5.02 -0.953,7.246 -3.51,1.038 -7.46,0.193 -10.242,-2.569 -4.057,-4.024 -4.089,-10.574 -0.065,-14.631 z"
     fill="#8065e0"
     id="path54" />
  <path
     d="m 121.6342,417.017 c -0.7171,-2.301 -17.36031,-56.876 9.6862,-98.114 15.6264,-23.825 41.9879,-37.868 78.346,-41.753 l 2.7826,26.126 c -28.1059,2.997 -47.9814,13.069 -59.0911,29.926 -20.2608,30.739 -6.7857,75.531 -6.6466,75.981 z"
     fill="url(#paint9_linear)"
     id="path56"
     style="fill:url(#paint9_linear)" />
  <path
     d="m 205.1498,312.802 c 14.3522,0 25.9872,-11.635 25.9872,-25.987 0,-14.352 -11.635,-25.987 -25.9872,-25.987 -14.3522,0 -25.987,11.635 -25.987,25.987 0,14.352 11.6348,25.987 25.987,25.987 z"
     fill="url(#paint10_radial)"
     id="path58"
     style="fill:url(#paint10_radial)" />
  <path
     d="m 182.0098,394.434 -38.5415,-5.127 c -6.8713,-0.91 -13.1754,3.907 -14.0958,10.778 -0.9098,6.871 3.9065,13.175 10.7779,14.096 l 38.5415,5.127 c 6.8713,0.909 13.1754,-3.907 14.0959,-10.778 0.9097,-6.872 -3.9173,-13.186 -10.778,-14.096 z"
     fill="#8a6fe8"
     id="path60" />
  <path
     d="m 113.73535,427.185 3.61762,25.891 c 1.01678,6.892 7.41723,11.655 14.30993,10.649 6.8927,-1.017 11.6556,-7.417 10.6495,-14.31 l -3.714,-26.554 z"
     fill="#8a6fe8"
     id="path62" />
  <path
     d="m 125.5194,434.988 19.3296,30.439 c 3.7568,5.865 11.5592,7.578 17.4245,3.821 5.8652,-3.757 7.5777,-11.559 3.821,-17.425 l -14.2992,-22.679 z"
     fill="#8a6fe8"
     id="path64" />
  <path
     d="m 136.0511,423.739 25.7515,25.28 c 4.9662,4.892 12.9506,4.827 17.8419,-0.139 4.8913,-4.966 4.827,-12.951 -0.1285,-17.842 l -26.2223,-25.741 z"
     fill="#8a6fe8"
     id="path66" />
  <path
     d="m 136.4043,441.912 c 14.5827,0 26.4043,-11.821 26.4043,-26.404 0,-14.583 -11.8216,-26.404 -26.4043,-26.404 -14.5827,0 -26.4043,11.821 -26.4043,26.404 0,14.583 11.8216,26.404 26.4043,26.404 z"
     fill="url(#paint11_radial)"
     id="path68"
     style="fill:url(#paint11_radial)" />
  <path
     d="m 294.73,123.6308 -26.911,2.9584 0.742,-28.048 19.327,-2.1234 z"
     fill="#8a6fe8"
     id="path70" />
  <path
     d="m 280.018,101.647 c 10.437,-2.126 17.175,-12.3107 15.049,-22.7482 -2.126,-10.43754 -12.31,-17.17535 -22.748,-15.04936 -10.437,2.12599 -17.175,12.31066 -15.049,22.74816 2.126,10.4375 12.31,17.1754 22.748,15.0494 z"
     fill="#d8cff7"
     id="path72" />
  <path
     d="m 306.885,139.385 c 1.217,-0.1386 2.063,-1.294 1.799,-2.4853 -2.833,-12.6179 -14.761,-21.3622 -27.911,-19.9071 -13.151,1.4445 -22.887,12.5809 -22.908,25.5069 -0.002,1.2237 1.084,2.1602 2.303,2.0321 z"
     fill="url(#paint12_radial)"
     id="path74"
     style="fill:url(#paint12_radial)" />
  <defs
     id="defs141">
    <radialGradient
       id="paint0_radial"
       cx="0"
       cy="0"
       r="1"
       gradientUnits="userSpaceOnUse"
       gradientTransform="matrix(26.4058,0,0,26.4058,492.004,163.457)">
      <stop
         stop-color="#8065E0"
         id="stop76" />
      <stop
         offset="1"
         stop-color="#512BD4"
         id="stop78" />
    </radialGradient>
    <linearGradient
       id="paint1_linear"
       x1="214.439"
       y1="303.48199"
       x2="236.702"
       y2="409.505"
       gradientUnits="userSpaceOnUse"
       gradientTransform="translate(110,60)">
      <stop
         stop-color="#522CD5"
         id="stop81" />
      <stop
         offset="0.4397"
         stop-color="#8A6FE8"
         id="stop83" />
    </linearGradient>
    <linearGradient
       id="paint2_linear"
       x1="231.673"
       y1="404.14401"
       x2="297.80499"
       y2="522.04797"
       gradientUnits="userSpaceOnUse"
       gradientTransform="translate(110,60)">
      <stop
         stop-color="#522CD5"
         id="stop86" />
      <stop
         offset="0.4397"
         stop-color="#8A6FE8"
         id="stop88" />
    </linearGradient>
    <radialGradient
       id="paint3_radial"
       cx="0"
       cy="0"
       r="1"
       gradientUnits="userSpaceOnUse"
       gradientTransform="matrix(45.832125,-0.20857457,0.20857457,45.832125,390.957,529.555)">
      <stop
         offset="0.034"
         stop-color="#522CD5"
         id="stop91" />
      <stop
         offset="0.9955"
         stop-color="#8A6FE8"
         id="stop93" />
    </radialGradient>
    <linearGradient
       id="paint4_linear"
       x1="166.061"
       y1="303.491"
       x2="144.763"
       y2="409.70901"
       gradientUnits="userSpaceOnUse"
       gradientTransform="translate(110,60)">
      <stop
         stop-color="#522CD5"
         id="stop96" />
      <stop
         offset="0.4397"
         stop-color="#8A6FE8"
         id="stop98" />
    </linearGradient>
    <linearGradient
       id="paint5_linear"
       x1="146.739"
       y1="407.302"
       x2="147.246"
       y2="518.62701"
       gradientUnits="userSpaceOnUse"
       gradientTransform="translate(110,60)">
      <stop
         stop-color="#522CD5"
         id="stop101" />
      <stop
         offset="0.4397"
         stop-color="#8A6FE8"
         id="stop103" />
    </linearGradient>
    <radialGradient
       id="paint6_radial"
       cx="0"
       cy="0"
       r="1"
       gradientUnits="userSpaceOnUse"
       gradientTransform="matrix(-50.247079,0.22889257,-0.22889257,-50.247079,258.63,530.023)">
      <stop
         offset="0.034"
         stop-color="#522CD5"
         id="stop106" />
      <stop
         offset="0.9955"
         stop-color="#8A6FE8"
         id="stop108" />
    </radialGradient>
    <radialGradient
       id="paint7_radial"
       cx="0"
       cy="0"
       r="1"
       gradientUnits="userSpaceOnUse"
       gradientTransform="matrix(-140.93354,0.6420003,-0.6420003,-140.93354,329.219,213.929)">
      <stop
         offset="0.4744"
         stop-color="#A08BE8"
         id="stop111" />
      <stop
         offset="0.8618"
         stop-color="#8065E0"
         id="stop113" />
    </radialGradient>
    <radialGradient
       id="paint8_radial"
       cx="0"
       cy="0"
       r="1"
       gradientUnits="userSpaceOnUse"
       gradientTransform="matrix(-146.05148,0.6653143,-0.6653143,-146.05148,424.861,218.738)">
      <stop
         offset="0.0933"
         stop-color="#E1DFDD"
         id="stop116" />
      <stop
         offset="0.6573"
         stop-color="white"
         id="stop118" />
    </radialGradient>
    <linearGradient
       id="paint9_linear"
       x1="54.184601"
       y1="217.159"
       x2="54.184601"
       y2="357.022"
       gradientUnits="userSpaceOnUse"
       gradientTransform="translate(110,60)">
      <stop
         offset="0.3344"
         stop-color="#9780E6"
         id="stop121" />
      <stop
         offset="0.8488"
         stop-color="#8A6FE8"
         id="stop123" />
    </linearGradient>
    <radialGradient
       id="paint10_radial"
       cx="0"
       cy="0"
       r="1"
       gradientUnits="userSpaceOnUse"
       gradientTransform="matrix(25.992131,-0.11828597,0.11828597,25.992131,200.3494,278.071)">
      <stop
         stop-color="#8065E0"
         id="stop126" />
      <stop
         offset="1"
         stop-color="#512BD4"
         id="stop128" />
    </radialGradient>
    <radialGradient
       id="paint11_radial"
       cx="0"
       cy="0"
       r="1"
       gradientUnits="userSpaceOnUse"
       gradientTransform="matrix(26.4106,0,0,26.4106,135.805,405.043)">
      <stop
         stop-color="#8065E0"
         id="stop131" />
      <stop
         offset="1"
         stop-color="#512BD4"
         id="stop133" />
    </radialGradient>
    <radialGradient
       id="paint12_radial"
       cx="0"
       cy="0"
       r="1"
       gradientUnits="userSpaceOnUse"
       gradientTransform="matrix(17.834977,-11.232371,11.232371,17.834977,279.113,127.3662)">
      <stop
         stop-color="#8065E0"
         id="stop136" />
      <stop
         offset="1"
         stop-color="#512BD4"
         id="stop138" />
    </radialGradient>
  </defs>
</svg>
